PathFileType	4	(X/Y/Z)	C:\Users\Basilio\Documents\Thesis Gigler\squatting_fais\c3dfiles\077\SLS_front_pre1\markers_experimental.trc
DataRate	CameraRate	NumFrames	NumMarkers	Units	OrigDataRate	OrigDataStartFrame	OrigNumFrames
200.000000	200.000000	4	60	mm	200.000000	1535	3071
Frame#	Time	FHD			LBHD			RBHD			C7			T10			CLAV			LSHO			LUUPA			LMUPA			LDUPA			LLEP			LMEP			LRAD			LUL			LRFIN			RSHO			RUPA1			RMUPA			RDUPA			RLEP			RMEP			RRAD			RUL			RUFIN			LASI			RASI			USACR			LSACR			RSACR			LTHI1			LTHI2			LTHI3			LTHI4			LLFC			LMFC			LTIB1			LTIB2			LTIB3			LTIB4			LLMAL			LHEE			LMT1			LMT2			LMT5			RTHI			RTHI2			RTHI3			RTHI4			RLFC			RMFC			RTIB1			RTIB2			RTIB3			RTIB4			RLMAL			RMMAL			RHEE			RMT1			RMT2			RMT5			
		X1	Y1	Z1	X2	Y2	Z2	X3	Y3	Z3	X4	Y4	Z4	X5	Y5	Z5	X6	Y6	Z6	X7	Y7	Z7	X8	Y8	Z8	X9	Y9	Z9	X10	Y10	Z10	X11	Y11	Z11	X12	Y12	Z12	X13	Y13	Z13	X14	Y14	Z14	X15	Y15	Z15	X16	Y16	Z16	X17	Y17	Z17	X18	Y18	Z18	X19	Y19	Z19	X20	Y20	Z20	X21	Y21	Z21	X22	Y22	Z22	X23	Y23	Z23	X24	Y24	Z24	X25	Y25	Z25	X26	Y26	Z26	X27	Y27	Z27	X28	Y28	Z28	X29	Y29	Z29	X30	Y30	Z30	X31	Y31	Z31	X32	Y32	Z32	X33	Y33	Z33	X34	Y34	Z34	X35	Y35	Z35	X36	Y36	Z36	X37	Y37	Z37	X38	Y38	Z38	X39	Y39	Z39	X40	Y40	Z40	X41	Y41	Z41	X42	Y42	Z42	X43	Y43	Z43	X44	Y44	Z44	X45	Y45	Z45	X46	Y46	Z46	X47	Y47	Z47	X48	Y48	Z48	X49	Y49	Z49	X50	Y50	Z50	X51	Y51	Z51	X52	Y52	Z52	X53	Y53	Z53	X54	Y54	Z54	X55	Y55	Z55	X56	Y56	Z56	X57	Y57	Z57	X58	Y58	Z58	X59	Y59	Z59	X60	Y60	Z60	

1536	7.675	-162.5038146972657	1799.87451171875	-914.3701171875002	-335.6472473144532	1765.062133789063	-985.7127075195315	-343.3382873535157	1761.045532226563	-841.236999511719	-439.0930480957032	1620.582885742188	-919.8862915039065	-461.9105224609376	1273.683349609375	-919.6134033203127	-280.4048767089844	1552.529296875	-920.8860473632815	-348.6816101074219	1572.805786132813	-1119.468994140625	-392.6635742187501	1348.766479492188	-1207.477416992188	-351.6259460449219	1323.348754882813	-1200.159545898438	-395.083953857422	1280.07470703125	-1209.853393554688	-386.9031372070314	1214.380981445313	-1209.416259765625	-427.0652465820314	1201.880737304688	-1144.177612304688	-249.6076049804688	949.3055419921877	-1132.463134765625	-304.4655456542969	927.003845214844	-1187.952514648438	-206.9081726074219	871.4180908203127	-1162.810546875	-328.1043701171876	1567.820678710938	-723.6467285156251	-371.5439453125001	1354.221801757813	-619.1552734375001	-329.9429626464844	1331.187622070313	-627.5247802734376	-366.8213806152344	1285.076171875	-613.2490234375001	-354.1596984863282	1219.52099609375	-609.3330688476564	-391.4028930664064	1199.93505859375	-677.9889526367189	-198.0155029296876	968.3176269531252	-660.5886230468751	-243.0951690673829	946.1785888671877	-600.5103149414064	-148.9868316650391	889.800720214844	-627.8815917968751	-270.2873535156251	1063.492797851563	-1048.262573242188	-276.2948913574219	1097.382690429688	-762.0073852539064	-472.0591735839845	1168.242919921875	-914.8724365234377	-475.936248779297	1137.536743164063	-942.8079833984377	-481.3578186035157	1137.6103515625	-887.070007324219	-352.8343200683594	853.9096679687502	-1100.20458984375	-333.4253845214844	772.416198730469	-1100.218994140625	-286.9970703125001	769.8267822265627	-1092.29736328125	-369.5628051757813	725.1826171875001	-1086.847534179688	-357.7335815429688	577.0011596679689	-1063.766357421875	-352.5490417480469	548.4371337890626	-932.5500488281252	-312.6292419433594	359.9007873535157	-1010.952331542969	-342.8197021484376	316.4004211425782	-1085.077880859375	-310.2348632812501	315.1640319824219	-1051.902587890625	-307.4958496093751	234.2131347656251	-1026.466918945313	-355.5908508300782	112.9040451049805	-1075.404052734375	-407.0358276367189	79.33420562744142	-1024.578369140625	-196.7108917236329	56.08425521850587	-1010.077697753906	-192.3222656250001	58.90553283691408	-1052.170043945313	-324.4306030273438	122.9278869628907	-991.210876464844	-333.8846740722657	755.1789550781251	-701.0609741210939	-290.5816345214844	703.9792480468751	-699.5134277343751	-257.3490295410157	707.9177856445314	-703.4350585937501	-309.8494873046876	625.3942260742189	-713.4411010742189	-304.1659851074219	558.8604125976564	-713.7286987304689	-270.9462585449219	544.7988281250001	-839.0360107421877	-277.2742614746094	416.114959716797	-733.7406005859376	-354.7551574707032	348.5052490234376	-701.5828857421876	-314.6140747070313	337.0512695312501	-723.6569824218751	-319.3307189941407	295.3147583007813	-764.6123657226564	-418.755340576172	133.1362762451172	-723.0010375976564	-391.2878417968751	135.1891632080078	-812.7792968750002	-486.3675231933595	109.9203643798828	-778.544372558594	-268.2872619628907	62.02230834960939	-767.0120849609376	-272.8543701171876	64.36013793945314	-728.4561767578126	-293.4753723144532	49.7359085083008	-679.2883300781251	
1537	7.68	-159.604736328125	1797.993774414063	-914.2908935546877	-332.9315185546876	1764.567626953125	-985.8151855468752	-341.1739196777344	1760.538330078125	-841.6513671875002	-437.9273071289064	1621.1611328125	-919.8155517578127	-462.1180725097657	1273.893432617188	-919.5443115234377	-279.7514038085938	1552.169555664063	-920.8402099609377	-347.9508666992188	1572.737670898438	-1119.439208984375	-393.4215698242189	1349.084106445313	-1207.591186523438	-352.4894409179688	1323.352416992188	-1200.339477539063	-395.8826599121095	1280.348876953125	-1210.030151367188	-389.2868041992189	1214.96240234375	-1209.748901367188	-428.7233886718751	1202.213989257813	-1144.443481445313	-253.7145385742188	947.8372802734377	-1133.997436523438	-309.0103759765626	926.4671020507815	-1189.358764648438	-212.6682891845704	868.2686767578127	-1164.661254882813	-327.5268554687501	1567.747680664063	-723.6138305664064	-372.4207763671876	1354.477416992188	-619.0435180664064	-330.9653625488282	1331.2099609375	-627.2111206054689	-368.1695861816407	1285.325439453125	-612.9238281250001	-355.9129943847657	1219.46923828125	-609.3270874023439	-392.8555908203126	1200.203735351563	-677.6509399414064	-201.6927337646485	967.0455322265627	-658.9454956054689	-247.3890838623047	945.196960449219	-599.0891113281251	-153.5208129882813	888.3411254882815	-625.7096557617189	-270.6578369140626	1063.473999023438	-1048.322875976563	-276.7024841308594	1097.26806640625	-762.0394287109376	-472.4467163085939	1168.221313476563	-914.8126220703127	-476.4673767089845	1137.621948242188	-942.7366333007815	-481.6792907714845	1137.634887695313	-887.0458984375002	-353.1835021972657	853.9940185546877	-1100.427856445313	-333.7977294921876	772.357604980469	-1100.36279296875	-287.4183654785157	770.2700195312502	-1092.336059570313	-370.9510192871094	725.4741821289064	-1087.074829101563	-358.1616821289063	577.1016845703126	-1063.879516601563	-352.6786499023438	548.4993286132814	-932.5617675781252	-312.6701965332032	359.8628845214844	-1010.957702636719	-342.8166503906251	316.4277648925782	-1085.0703125	-310.2255249023438	315.1540222167969	-1051.908813476563	-307.4946899414063	234.2492828369141	-1026.489990234375	-355.6001281738282	112.8516616821289	-1075.392822265625	-406.9855957031251	79.26509094238283	-1024.580810546875	-196.6824035644532	56.062313079834	-1010.058166503906	-192.1398468017579	58.90518951416017	-1052.093017578125	-324.4316711425782	122.9161605834961	-991.2297973632815	-334.0605468750001	755.1287231445314	-701.1287231445314	-290.7428283691407	703.9256591796876	-699.4956665039064	-257.5390625000001	708.0061645507814	-703.4815673828126	-309.9077148437501	625.3663330078126	-713.4422607421876	-304.2114257812501	558.8184814453126	-713.7056884765626	-270.8657226562501	544.8143310546876	-838.9807128906252	-277.2722778320313	416.0919799804689	-733.7241210937501	-354.7355346679688	348.5178527832032	-701.5079345703126	-314.6380310058594	337.0235900878907	-723.7025756835939	-319.4360351562501	295.3095703125001	-764.6482543945314	-418.7141723632814	133.1309967041016	-723.0114135742189	-391.270233154297	135.2090911865235	-812.7500000000002	-486.3925781250001	109.9310607910157	-778.553405761719	-268.2839965820313	62.08254241943361	-767.0147094726564	-272.8584594726563	64.34034729003908	-728.5067138671876	-293.5032958984376	49.70018768310548	-679.3499145507814	
1538	7.685	-156.8661804199219	1796.0263671875	-914.3535766601565	-329.9213562011719	1763.236694335938	-985.7632446289065	-338.2295227050782	1760.745483398438	-841.4961547851565	-436.7122802734376	1621.78125	-919.828308105469	-462.3892211914064	1274.045532226563	-919.540954589844	-279.1602478027344	1551.852905273438	-920.7722778320315	-347.4366149902344	1572.718627929688	-1119.453125	-394.2893066406251	1349.478759765625	-1207.703735351563	-353.2898864746094	1323.266723632813	-1200.461303710938	-396.9559631347657	1280.623046875	-1210.08203125	-390.3448181152345	1215.222045898438	-1209.924072265625	-429.6401672363282	1202.978271484375	-1144.627197265625	-257.4078063964844	946.3987426757815	-1135.764404296875	-313.7897033691407	926.0498657226565	-1190.987426757813	-217.6359252929688	867.5972290039065	-1166.750732421875	-326.9107055664063	1567.743041992188	-723.5740356445314	-373.4563598632813	1354.771362304688	-618.8834228515626	-332.0167846679688	1331.188720703125	-626.8270874023439	-369.5565490722657	1285.551513671875	-612.6509399414064	-357.5603332519532	1219.866577148438	-608.5966186523439	-394.7677001953126	1200.371215820313	-677.3199462890626	-205.2776794433594	966.0306396484377	-657.2131347656251	-251.4083862304688	944.6401367187502	-597.5978393554689	-158.1512756347657	886.7666625976565	-623.6517333984376	-271.0211181640626	1063.278564453125	-1048.22607421875	-277.2419128417969	1097.067749023438	-762.0892944335939	-472.7180175781251	1168.286010742188	-914.7824707031252	-476.8554992675782	1137.81689453125	-942.7531738281252	-482.0440673828126	1137.632568359375	-887.0593872070315	-356.1978454589844	854.7425537109377	-1103.408935546875	-334.0538635253907	772.393005371094	-1100.406982421875	-287.9678344726563	770.230407714844	-1092.616333007813	-369.7815246582032	725.1483154296876	-1086.89453125	-358.3070373535157	577.0868530273439	-1063.923828125	-352.8327636718751	548.4781494140626	-932.6165771484377	-312.7267456054688	359.8047790527344	-1010.93017578125	-342.8512878417969	316.3760070800782	-1085.097412109375	-310.2955322265626	315.1094055175782	-1051.882202148438	-307.5745849609376	234.2044219970704	-1026.482543945313	-355.5764770507813	112.8448867797852	-1075.399536132813	-407.0209045410157	79.27368927001955	-1024.587036132813	-196.6827392578126	56.07241058349611	-1010.065856933594	-191.8158721923828	59.59382247924806	-1052.230590820313	-324.4304809570313	122.9435806274414	-991.1931762695315	-334.3454589843751	755.0929565429689	-701.1261596679689	-290.8486022949219	703.9491577148439	-699.5112915039064	-257.7298278808594	707.9509887695314	-703.4531250000001	-310.0163879394532	625.3433227539064	-713.4620361328126	-304.2503662109376	558.8064575195314	-713.6475219726564	-270.8557739257813	544.7987060546876	-838.9302368164065	-277.2978820800782	416.0915527343751	-733.7265625000001	-354.8135375976563	348.4990234375001	-701.5482788085939	-314.6684875488282	337.0205993652344	-723.7128295898439	-319.4222717285157	295.3146667480469	-764.5761108398439	-418.6932067871095	133.1101531982422	-722.9968872070314	-391.2670288085939	135.180648803711	-812.7896118164065	-486.350799560547	109.9021301269532	-778.5571899414065	-268.2964172363282	62.0663299560547	-767.0210571289064	-272.8609008789063	64.44570922851564	-728.4451904296876	-293.4987182617188	49.72654724121095	-679.3303222656251	
1539	7.69	-153.3194732666016	1793.421997070313	-913.8110961914065	-327.2596740722657	1763.093017578125	-985.900573730469	-335.9569702148438	1760.139282226563	-841.9538574218752	-435.7452087402345	1622.39404296875	-919.8334960937502	-462.5722961425782	1274.288208007813	-919.5262451171877	-278.5220642089844	1551.634887695313	-920.708190917969	-346.6964721679688	1572.759643554688	-1119.443481445313	-395.051971435547	1349.85986328125	-1207.865234375	-353.9624938964844	1323.356567382813	-1200.644287109375	-398.3691406250001	1281.059936523438	-1210.321044921875	-391.8904418945314	1215.536865234375	-1210.129760742188	-431.2199096679689	1203.40869140625	-1144.884521484375	-262.1807556152344	945.6109619140627	-1137.140869140625	-318.3261413574219	925.450866699219	-1192.505493164063	-222.7240905761719	866.5191040039065	-1168.86767578125	-326.2627258300782	1567.666381835938	-723.4907226562501	-374.3823242187501	1355.053955078125	-618.7310791015626	-333.0419921875001	1331.2158203125	-626.4806518554689	-370.9525146484376	1285.787841796875	-612.4225463867189	-359.3643188476563	1219.8271484375	-608.5426635742189	-396.309295654297	1200.923217773438	-677.0606079101564	-208.9934539794922	964.8035888671877	-655.4765625000001	-255.6790466308594	943.8154907226565	-596.2287597656251	-162.5681304931641	885.497497558594	-621.4335937500001	-271.4415283203126	1063.230834960938	-1048.263671875	-277.6375732421876	1096.908325195313	-762.0139770507814	-473.0785217285157	1168.38916015625	-914.6937255859377	-477.1586303710939	1137.9443359375	-942.7595825195315	-482.4132385253907	1137.676391601563	-887.0020141601565	-356.4307556152344	855.014099121094	-1103.458251953125	-334.0021057128907	772.7131347656252	-1100.218872070313	-287.9324340820313	770.028747558594	-1092.515258789063	-370.5625000000001	725.3311157226564	-1087.012573242188	-358.5213928222657	577.0958862304689	-1063.968139648438	-352.9274291992188	548.4754028320314	-932.6323242187502	-312.7842712402344	359.7323303222657	-1010.976013183594	-342.8896179199219	316.3595275878907	-1085.115600585938	-310.3412780761719	315.1298217773438	-1051.9296875	-307.5709533691407	234.2232055664063	-1026.461791992188	-355.5645141601563	112.7821578979492	-1075.431762695313	-407.0046386718751	79.30994415283205	-1024.58056640625	-196.6646423339844	56.08354949951173	-1010.089660644531	-191.8032836914063	59.5944061279297	-1052.22119140625	-324.4764709472657	122.9564743041992	-991.2117309570315	-334.5186462402344	755.0330810546876	-701.2040405273439	-291.0030822753907	703.8582763671876	-699.5175170898439	-257.8990173339844	707.8884277343751	-703.4338989257814	-310.1445922851563	625.3223266601564	-713.4371948242189	-304.3402099609376	558.7923583984376	-713.6466674804689	-270.9019165039063	544.7571411132814	-838.8455200195315	-277.3399353027344	416.0936584472657	-733.6709594726564	-354.8575744628907	348.5210266113282	-701.5341796875001	-314.7131042480469	337.0032348632813	-723.6669921875001	-319.4127807617188	295.3168640136719	-764.5569458007814	-418.7088623046876	133.0717468261719	-722.9747314453126	-391.3301696777345	135.139892578125	-812.769226074219	-486.3569946289064	109.8960876464844	-778.5662231445315	-268.2863159179688	62.08252334594728	-767.0343017578126	-272.8826904296876	64.42360687255861	-728.4511108398439	-293.5215454101563	49.72197341918947	-679.3624267578126	
